# Blender v3.1.2 OBJ File: 'Corridors.blend'
# www.blender.org
mtllib Ground_Tile.mtl
o Ground_Tile_1_Plane
v -0.500000 -0.009245 0.500000
v 0.500000 -0.009245 0.500000
v -0.500000 -0.009245 -0.500000
v 0.500000 -0.009245 -0.500000
v -0.458760 -0.009245 -0.458760
v -0.458760 -0.009245 0.458760
v 0.458760 -0.009245 0.458760
v 0.458760 -0.009245 -0.458760
v -0.441528 -0.027735 -0.441528
v -0.441528 -0.027735 0.441528
v 0.441528 -0.027735 0.441528
v 0.441528 -0.014465 -0.441528
v -0.458760 -0.009245 0.000000
v 0.458760 -0.009245 0.000000
v -0.500000 -0.009245 0.000000
v 0.500000 -0.009245 0.000000
v -0.441528 -0.027735 0.000000
v 0.441528 -0.027735 0.000000
v 0.003125 -0.009245 0.458760
v 0.003125 -0.009245 -0.458760
v 0.003406 -0.009245 0.500000
v 0.003406 -0.009245 -0.500000
v 0.003008 -0.027735 0.441528
v 0.003008 -0.027735 -0.441528
v 0.003008 -0.027735 0.000000
v -0.458760 -0.009245 0.000000
v -0.458760 -0.009245 0.458760
v -0.458760 -0.009245 0.458760
v 0.003125 -0.009245 0.458760
v 0.458760 -0.009245 0.458760
v 0.458760 -0.009245 0.458760
v 0.458760 -0.009245 0.000000
v 0.458760 -0.009245 -0.458760
v 0.458760 -0.009245 -0.458760
v 0.003125 -0.009245 -0.458760
v -0.458760 -0.009245 -0.458760
v -0.458760 -0.009245 -0.458760
v -0.441528 -0.027735 0.000000
v -0.441528 -0.027735 0.441528
v -0.441528 -0.027735 0.441528
v 0.003008 -0.027735 0.441528
v 0.441528 -0.027735 0.441528
v 0.441528 -0.027735 0.441528
v 0.441528 -0.027735 0.000000
v 0.441528 -0.014465 -0.441528
v 0.441528 -0.014465 -0.441528
v 0.003008 -0.027735 -0.441528
v -0.441528 -0.027735 -0.441528
v -0.441528 -0.027735 -0.441528
vt 0.235799 0.836393
vt 0.235799 0.903850
vt 0.209710 0.901316
vt 0.209709 0.836393
vt 0.300029 0.500000
vt 0.300029 0.958760
vt 0.210507 1.000000
vt 0.210507 0.500000
vt 0.300029 0.496875
vt 0.300029 0.958760
vt 0.210507 1.000000
vt 0.210507 0.496594
vt 0.300029 0.500000
vt 0.300029 0.958760
vt 0.210507 1.000000
vt 0.210507 0.500000
vt 0.300029 0.503125
vt 0.300029 0.958760
vt 0.210507 1.000000
vt 0.210507 0.503406
vt 0.343983 0.341657
vt 0.343983 0.679952
vt 0.224856 0.678975
vt 0.224856 0.340681
vt 0.235799 0.836393
vt 0.235799 0.903850
vt 0.209710 0.901316
vt 0.209709 0.836393
vt 0.235799 0.835933
vt 0.235799 0.903850
vt 0.209710 0.901316
vt 0.209709 0.835950
vt 0.235799 0.836852
vt 0.235799 0.903850
vt 0.209710 0.901316
vt 0.209709 0.836835
vt 0.235799 0.768935
vt 0.209709 0.771469
vt 0.344434 0.683846
vt 0.225091 0.683846
vt 0.225091 0.341098
vt 0.344434 0.341098
vt 0.300029 0.041240
vt 0.210507 0.000000
vt 0.300029 0.041240
vt 0.210507 0.000000
vt 0.235799 0.768935
vt 0.209709 0.771469
vt 0.220109 0.685604
vt 0.220109 0.336069
vt 0.345980 0.336069
vt 0.345980 0.685604
vt 0.235799 0.768935
vt 0.209709 0.771469
vt 0.235799 0.768935
vt 0.209709 0.771469
vt 0.223511 0.329177
vt 0.346818 0.329177
vt 0.346818 0.689502
vt 0.223511 0.689502
vt 0.300029 0.041240
vt 0.210507 0.000000
vt 0.300029 0.041240
vt 0.210507 0.000000
vn -0.5626 0.8266 0.0122
vn 0.0000 1.0000 0.0000
vn -0.0151 0.9998 0.0150
vn 0.7316 0.6818 0.0000
vn 0.0000 0.6818 0.7316
vn 0.0000 0.6818 -0.7316
vn -0.7316 0.6818 0.0000
vn -0.0123 0.8267 0.5625
usemtl Grey_Packing.001
s off
f 32/1/1 33/2/1 45/3/1 44/4/1
f 13/5/2 37/6/2 3/7/2 15/8/2
f 19/9/2 28/10/2 1/11/2 21/12/2
f 14/13/2 31/14/2 2/15/2 16/16/2
f 20/17/2 34/18/2 4/19/2 22/20/2
f 25/21/3 18/22/3 46/23/3 24/24/3
f 26/25/4 27/26/4 39/27/4 38/28/4
f 35/29/5 36/30/5 48/31/5 47/32/5
f 29/33/6 30/34/6 42/35/6 41/36/6
f 5/37/4 26/25/4 38/28/4 49/38/4
f 23/39/2 43/40/2 18/41/2 25/42/2
f 34/43/2 14/13/2 16/16/2 4/44/2
f 28/45/2 13/5/2 15/8/2 1/46/2
f 7/47/7 32/1/7 44/4/7 11/48/7
f 40/49/2 23/50/2 25/51/2 17/52/2
f 6/53/6 29/33/6 41/36/6 10/54/6
f 8/55/8 35/29/8 47/32/8 12/56/8
f 17/57/2 25/58/2 24/59/2 9/60/2
f 37/61/2 20/17/2 22/20/2 3/62/2
f 31/63/2 19/9/2 21/12/2 2/64/2
