# Blender v3.1.2 OBJ File: 'Corridors.blend'
# www.blender.org
mtllib Pilar.mtl
o Pilar_Cylinder.003
v 0.000000 -0.001462 -0.538415
v 0.206043 -0.001462 -0.497431
v 0.380717 -0.001462 -0.380717
v 0.497431 -0.001462 -0.206043
v 0.538415 -0.001462 0.000000
v 0.497431 -0.001462 0.206043
v 0.380717 -0.001462 0.380717
v 0.206043 -0.001462 0.497431
v -0.000000 -0.001462 0.538415
v -0.206043 -0.001462 0.497431
v -0.380717 -0.001462 0.380717
v -0.497431 -0.001462 0.206043
v -0.538415 -0.001462 -0.000000
v -0.497431 -0.001462 -0.206043
v -0.380717 -0.001462 -0.380717
v -0.206043 -0.001462 -0.497431
v -0.160271 4.934427 -0.386927
v 0.000000 4.934427 -0.418807
v 0.160271 4.934427 -0.386927
v -0.296141 4.934427 -0.296141
v 0.296141 4.934427 -0.296141
v 0.386927 4.934427 -0.160271
v 0.418807 4.934427 0.000000
v 0.386927 4.934427 0.160271
v 0.296141 4.934427 0.296141
v 0.160271 4.934427 0.386927
v -0.000000 4.934427 0.418807
v -0.160271 4.934427 0.386927
v -0.296141 4.934427 0.296141
v -0.386927 4.934427 0.160271
v -0.418807 4.934427 -0.000000
v -0.386927 4.934427 -0.160271
v -0.206043 0.516792 -0.497431
v 0.000000 0.516792 -0.538415
v 0.206043 0.516792 -0.497431
v -0.380717 0.516792 -0.380717
v 0.380717 0.516792 -0.380717
v 0.497431 0.516792 -0.206043
v 0.538415 0.516792 0.000000
v 0.497431 0.516792 0.206043
v 0.380717 0.516792 0.380717
v 0.206043 0.516792 0.497431
v -0.000000 0.516792 0.538415
v -0.206043 0.516792 0.497431
v -0.380717 0.516792 0.380717
v -0.497431 0.516792 0.206043
v -0.538415 0.516792 -0.000000
v -0.497431 0.516792 -0.206043
v -0.160271 0.640633 -0.386927
v 0.000000 0.640633 -0.418807
v 0.160271 0.640633 -0.386927
v -0.296141 0.640633 -0.296141
v 0.296141 0.640633 -0.296141
v 0.386927 0.640633 -0.160271
v 0.418807 0.640633 0.000000
v 0.386927 0.640633 0.160271
v 0.296141 0.640633 0.296141
v 0.160271 0.640633 0.386927
v -0.000000 0.640633 0.418807
v -0.160271 0.640633 0.386927
v -0.296141 0.640633 0.296141
v -0.386927 0.640633 0.160271
v -0.418807 0.640633 -0.000000
v -0.386927 0.640633 -0.160271
v -0.538415 0.516792 -0.000000
v -0.497431 0.516792 -0.206043
v -0.497431 0.516792 0.206043
v -0.380717 0.516792 0.380717
v -0.206043 0.516792 0.497431
v -0.000000 0.516792 0.538415
v 0.206043 0.516792 0.497431
v 0.380717 0.516792 0.380717
v 0.497431 0.516792 0.206043
v 0.538415 0.516792 0.000000
v 0.497431 0.516792 -0.206043
v 0.380717 0.516792 -0.380717
v 0.206043 0.516792 -0.497431
v -0.380717 0.516792 -0.380717
v 0.000000 0.516792 -0.538415
v -0.206043 0.516792 -0.497431
v -0.418807 0.640633 -0.000000
v -0.386927 0.640633 -0.160271
v -0.386927 0.640633 0.160271
v -0.296141 0.640633 0.296141
v -0.160271 0.640633 0.386927
v -0.000000 0.640633 0.418807
v 0.160271 0.640633 0.386927
v 0.296141 0.640633 0.296141
v 0.386927 0.640633 0.160271
v 0.418807 0.640633 0.000000
v 0.386927 0.640633 -0.160271
v 0.296141 0.640633 -0.296141
v 0.160271 0.640633 -0.386927
v -0.296141 0.640633 -0.296141
v 0.000000 0.640633 -0.418807
v -0.160271 0.640633 -0.386927
vt 0.990964 0.315245
vt 0.934263 0.315245
vt 0.934263 0.268185
vt 0.990964 0.268185
vt 0.934263 0.221124
vt 0.990964 0.221124
vt 0.990964 0.974094
vt 0.934263 0.974094
vt 0.934263 0.927033
vt 0.990964 0.927033
vt 0.990964 0.362306
vt 0.934263 0.362306
vt 0.934263 0.879972
vt 0.990964 0.879972
vt 0.934263 0.832912
vt 0.990964 0.832912
vt 0.934263 0.785851
vt 0.990964 0.785851
vt 0.934263 0.738791
vt 0.990964 0.738791
vt 0.934263 0.691730
vt 0.990964 0.691730
vt 0.934263 0.644670
vt 0.990964 0.644669
vt 0.934263 0.597609
vt 0.990964 0.597609
vt 0.934263 0.550548
vt 0.990964 0.550548
vt 0.934263 0.503488
vt 0.990964 0.503488
vt 0.934263 0.456427
vt 0.990964 0.456427
vt 0.934263 0.409366
vt 0.990964 0.409366
vt 0.009351 0.741778
vt 0.080507 0.741778
vt 0.080507 0.801829
vt 0.009351 0.801829
vt 0.009351 0.681727
vt 0.080507 0.681727
vt 0.009351 0.621676
vt 0.080507 0.621676
vt 0.009351 0.561626
vt 0.080507 0.561626
vt 0.009351 0.501575
vt 0.080507 0.501575
vt 0.009351 0.441524
vt 0.080507 0.441524
vt 0.009351 0.381473
vt 0.080507 0.381473
vt 0.009351 0.321423
vt 0.080507 0.321423
vt 0.009351 0.261372
vt 0.080507 0.261372
vt 0.009351 0.201321
vt 0.080507 0.201321
vt 0.009351 0.141271
vt 0.080507 0.141271
vt 0.009351 0.081220
vt 0.080507 0.081220
vt 0.080507 0.861879
vt 0.009351 0.861879
vt 0.009351 0.021169
vt 0.080507 0.021169
vt 0.009351 0.921930
vt 0.080507 0.921930
vt 0.080507 0.981981
vt 0.009351 0.981981
vt 0.213518 0.876504
vt 0.234237 0.876504
vt 0.234237 0.890646
vt 0.213518 0.890646
vt 0.213518 0.862361
vt 0.234237 0.862361
vt 0.213518 0.848219
vt 0.234237 0.848219
vt 0.213518 0.834077
vt 0.234237 0.834077
vt 0.213518 0.819934
vt 0.234237 0.819934
vt 0.213518 0.805792
vt 0.234237 0.805792
vt 0.213518 0.791649
vt 0.234237 0.791649
vt 0.213518 0.777507
vt 0.234237 0.777507
vt 0.213518 0.763365
vt 0.234237 0.763365
vt 0.213518 0.749222
vt 0.234237 0.749222
vt 0.213518 0.735080
vt 0.234237 0.735080
vt 0.213518 0.720937
vt 0.234237 0.720937
vt 0.234237 0.904789
vt 0.213518 0.904789
vt 0.213518 0.706795
vt 0.234237 0.706795
vt 0.213518 0.918931
vt 0.234237 0.918931
vt 0.234237 0.933074
vt 0.213518 0.933074
vn -0.7071 0.0000 -0.7071
vn -0.3827 0.0000 -0.9239
vn 0.0000 0.0000 -1.0000
vn 0.3827 0.0000 -0.9239
vn -0.9239 0.0000 -0.3827
vn 0.7071 0.0000 -0.7071
vn 0.9239 0.0000 -0.3827
vn 1.0000 0.0000 -0.0000
vn 0.9239 0.0000 0.3827
vn 0.7071 0.0000 0.7071
vn 0.3827 0.0000 0.9239
vn -0.0000 0.0000 1.0000
vn -0.3827 0.0000 0.9239
vn -0.7071 0.0000 0.7071
vn -0.9239 0.0000 0.3827
vn -1.0000 0.0000 -0.0000
vn -0.7193 0.6947 -0.0000
vn -0.6645 0.6947 -0.2753
vn -0.6645 0.6947 0.2753
vn -0.5086 0.6947 0.5086
vn -0.2753 0.6947 0.6645
vn -0.0000 0.6947 0.7193
vn 0.2753 0.6947 0.6645
vn 0.5086 0.6947 0.5086
vn 0.6645 0.6947 0.2753
vn 0.7193 0.6947 -0.0000
vn 0.6645 0.6947 -0.2753
vn 0.5086 0.6947 -0.5086
vn 0.2753 0.6947 -0.6645
vn -0.5086 0.6947 -0.5086
vn 0.0000 0.6947 -0.7193
vn -0.2753 0.6947 -0.6645
usemtl Grey_Packing
s 1
f 94/1/1 20/2/1 17/3/2 96/4/2
f 96/4/2 17/3/2 18/5/3 95/6/3
f 95/7/3 18/8/3 19/9/4 93/10/4
f 82/11/5 32/12/5 20/2/1 94/1/1
f 93/10/4 19/9/4 21/13/6 92/14/6
f 92/14/6 21/13/6 22/15/7 91/16/7
f 91/16/7 22/15/7 23/17/8 90/18/8
f 90/18/8 23/17/8 24/19/9 89/20/9
f 89/20/9 24/19/9 25/21/10 88/22/10
f 88/22/10 25/21/10 26/23/11 87/24/11
f 87/24/11 26/23/11 27/25/12 86/26/12
f 86/26/12 27/25/12 28/27/13 85/28/13
f 85/28/13 28/27/13 29/29/14 84/30/14
f 84/30/14 29/29/14 30/31/15 83/32/15
f 83/32/15 30/31/15 31/33/16 81/34/16
f 81/34/16 31/33/16 32/12/5 82/11/5
f 13/35/16 65/36/16 66/37/5 14/38/5
f 12/39/15 67/40/15 65/36/16 13/35/16
f 11/41/14 68/42/14 67/40/15 12/39/15
f 10/43/13 69/44/13 68/42/14 11/41/14
f 9/45/12 70/46/12 69/44/13 10/43/13
f 8/47/11 71/48/11 70/46/12 9/45/12
f 7/49/10 72/50/10 71/48/11 8/47/11
f 6/51/9 73/52/9 72/50/10 7/49/10
f 5/53/8 74/54/8 73/52/9 6/51/9
f 4/55/7 75/56/7 74/54/8 5/53/8
f 3/57/6 76/58/6 75/56/7 4/55/7
f 2/59/4 77/60/4 76/58/6 3/57/6
f 14/38/5 66/37/5 78/61/1 15/62/1
f 1/63/3 79/64/3 77/60/4 2/59/4
f 16/65/2 80/66/2 79/67/3 1/68/3
f 15/62/1 78/61/1 80/66/2 16/65/2
f 47/69/17 63/70/17 64/71/18 48/72/18
f 46/73/19 62/74/19 63/70/17 47/69/17
f 45/75/20 61/76/20 62/74/19 46/73/19
f 44/77/21 60/78/21 61/76/20 45/75/20
f 43/79/22 59/80/22 60/78/21 44/77/21
f 42/81/23 58/82/23 59/80/22 43/79/22
f 41/83/24 57/84/24 58/82/23 42/81/23
f 40/85/25 56/86/25 57/84/24 41/83/24
f 39/87/26 55/88/26 56/86/25 40/85/25
f 38/89/27 54/90/27 55/88/26 39/87/26
f 37/91/28 53/92/28 54/90/27 38/89/27
f 35/93/29 51/94/29 53/92/28 37/91/28
f 48/72/18 64/71/18 52/95/30 36/96/30
f 34/97/31 50/98/31 51/94/29 35/93/29
f 33/99/32 49/100/32 50/101/31 34/102/31
f 36/96/30 52/95/30 49/100/32 33/99/32
