# Blender v3.1.2 OBJ File: 'Corridors.blend'
# www.blender.org
mtllib Wall_1_Unit.mtl
o Wall_1_Unit_Plane.024
v 0.000000 0.000000 0.157955
v 0.750000 0.000000 0.157955
v 0.750000 3.750046 0.034384
v 0.750000 2.670489 0.600956
v 0.750000 3.414086 0.034384
v 0.750000 3.259154 0.094460
v 0.750000 3.202689 0.140215
v 0.750000 3.073285 0.310544
v 0.750000 2.979254 0.498132
v 0.750000 2.941270 0.548128
v 0.750000 2.897838 0.583323
v 0.750000 2.852361 0.600956
v 0.750000 1.208621 0.600956
v 0.750000 1.165085 0.364796
v 0.750000 1.063895 0.277862
v 0.750000 0.890762 0.189224
v 0.750000 0.761073 0.157955
v 0.098696 0.000000 0.157955
v 0.110521 3.750046 0.034384
v 0.110521 2.670489 0.600956
v 0.110521 3.414086 0.034384
v 0.110521 3.259154 0.094460
v 0.110521 3.073285 0.310544
v 0.110521 3.202689 0.140215
v 0.110521 2.979254 0.498132
v 0.110521 2.941270 0.548128
v 0.110521 2.852361 0.600956
v 0.110521 2.897838 0.583323
v 0.110521 1.208621 0.600956
v 0.110521 1.165085 0.364796
v 0.110521 1.063895 0.277862
v 0.110521 0.761073 0.157955
v 0.110521 0.890762 0.189224
v 0.110521 3.750000 -0.123571
v 0.110521 2.670489 0.443001
v 0.000000 2.670489 0.443001
v 0.110521 3.414086 -0.123571
v 0.000000 3.414086 -0.123571
v 0.000000 3.259154 -0.063495
v 0.000000 3.202689 -0.017740
v 0.000000 3.073285 0.152589
v 0.110521 3.202689 -0.017740
v 0.110521 2.979254 0.340177
v 0.000000 2.979254 0.340177
v 0.000000 2.941270 0.390173
v 0.000000 2.897838 0.425368
v 0.000000 2.852361 0.443001
v 0.110521 2.897838 0.425368
v 0.000000 1.274761 0.443001
v 0.110521 1.274761 0.443001
v 0.110521 1.234134 0.260243
v 0.000000 1.234134 0.260243
v 0.000000 1.063895 0.119907
v 0.000000 0.890762 0.031269
v 0.000000 0.761073 0.000000
v 0.110521 0.890762 0.031269
v 0.000000 0.000000 0.000000
v 0.110521 0.000000 0.000000
v 0.110521 3.259154 -0.063495
v 0.110521 3.073285 0.152589
v 0.110521 2.941270 0.390173
v 0.110521 2.852361 0.443001
v 0.110521 1.063895 0.119907
v 0.110521 0.761073 0.000000
v 0.750000 3.660802 0.034384
v 0.110521 3.660802 0.034384
v 0.000000 3.660802 -0.123571
v 0.110521 3.660802 -0.123571
v 0.000000 3.749954 -0.123571
v 0.110521 3.750000 -0.123571
v 1.500000 0.000000 0.157955
v 1.401304 0.000000 0.157955
v 1.389479 3.750046 0.034384
v 1.389479 2.670489 0.600956
v 1.389479 3.414086 0.034384
v 1.389479 3.259154 0.094460
v 1.389479 3.073285 0.310544
v 1.389479 3.202689 0.140215
v 1.389479 2.979254 0.498132
v 1.389479 2.941270 0.548128
v 1.389479 2.852361 0.600956
v 1.389479 2.897838 0.583323
v 1.389479 1.208621 0.600956
v 1.389479 1.165085 0.364796
v 1.389479 1.063895 0.277862
v 1.389479 0.761073 0.157955
v 1.389479 0.890762 0.189224
v 1.389479 3.750000 -0.123571
v 1.389479 2.670489 0.443001
v 1.500000 2.670489 0.443001
v 1.389479 3.414086 -0.123571
v 1.500000 3.414086 -0.123571
v 1.500000 3.259154 -0.063495
v 1.500000 3.202689 -0.017740
v 1.500000 3.073285 0.152589
v 1.389479 3.202689 -0.017740
v 1.389479 2.979254 0.340177
v 1.500000 2.979254 0.340177
v 1.500000 2.941270 0.390173
v 1.500000 2.897838 0.425368
v 1.500000 2.852361 0.443001
v 1.389479 2.897838 0.425368
v 1.500000 1.274761 0.443001
v 1.389479 1.274761 0.443001
v 1.389479 1.234134 0.260243
v 1.500000 1.234134 0.260243
v 1.500000 1.063895 0.119907
v 1.500000 0.890762 0.031269
v 1.500000 0.761073 0.000000
v 1.389479 0.890762 0.031269
v 1.500000 0.000000 0.000000
v 1.389479 0.000000 0.000000
v 1.389479 3.259154 -0.063495
v 1.389479 3.073285 0.152589
v 1.389479 2.941270 0.390173
v 1.389479 2.852361 0.443001
v 1.389479 1.063895 0.119907
v 1.389479 0.761073 0.000000
v 1.389479 3.660802 0.034384
v 1.500000 3.660802 -0.123571
v 1.389479 3.660802 -0.123571
v 1.500000 3.749954 -0.123571
v 1.389479 3.750000 -0.123571
v 0.110521 3.750046 0.034384
v 0.750000 1.208621 0.600956
v 0.110521 1.208621 0.600956
v 0.110521 1.208621 0.600956
v 0.750000 1.165085 0.364796
v 0.110521 1.165085 0.364796
v 0.110521 1.165085 0.364796
v 0.110521 1.063895 0.277862
v 0.110521 0.890762 0.189224
v 0.110521 0.761073 0.157955
v 0.098696 0.000000 0.157955
v 0.098696 0.000000 0.157955
v 0.110521 2.941270 0.548128
v 0.110521 2.897838 0.583323
v 0.110521 2.852361 0.600956
v 0.110521 2.979254 0.498132
v 0.110521 3.073285 0.310544
v 0.110521 2.670489 0.600956
v 0.110521 3.259154 0.094460
v 0.110521 3.202689 0.140215
v 0.110521 3.414086 0.034384
v 0.110521 3.660802 0.034384
v 0.000000 1.274761 0.443001
v 0.110521 1.274761 0.443001
v 0.110521 1.274761 0.443001
v 0.110521 1.234134 0.260243
v 0.110521 1.234134 0.260243
v 0.000000 1.234134 0.260243
v 0.000000 0.000000 0.000000
v 0.110521 0.000000 0.000000
v 0.110521 0.000000 0.000000
v 0.110521 1.063895 0.119907
v 0.110521 0.890762 0.031269
v 0.110521 0.761073 0.000000
v 0.110521 2.941270 0.390173
v 0.110521 2.897838 0.425368
v 0.110521 2.852361 0.443001
v 0.110521 2.979254 0.340177
v 0.110521 3.073285 0.152589
v 0.110521 2.670489 0.443001
v 0.110521 3.259154 -0.063495
v 0.110521 3.202689 -0.017740
v 0.110521 3.414086 -0.123571
v 0.110521 3.660802 -0.123571
v 1.389479 3.750046 0.034384
v 1.389479 1.208621 0.600956
v 1.389479 1.208621 0.600956
v 1.389479 1.165085 0.364796
v 1.389479 1.165085 0.364796
v 1.389479 1.063895 0.277862
v 1.389479 0.890762 0.189224
v 1.389479 0.761073 0.157955
v 1.401304 0.000000 0.157955
v 1.401304 0.000000 0.157955
v 1.389479 2.941270 0.548128
v 1.389479 2.897838 0.583323
v 1.389479 2.852361 0.600956
v 1.389479 2.979254 0.498132
v 1.389479 3.073285 0.310544
v 1.389479 2.670489 0.600956
v 1.389479 3.259154 0.094460
v 1.389479 3.202689 0.140215
v 1.389479 3.414086 0.034384
v 1.389479 3.660802 0.034384
v 1.500000 1.274761 0.443001
v 1.389479 1.274761 0.443001
v 1.389479 1.274761 0.443001
v 1.389479 1.234134 0.260243
v 1.389479 1.234134 0.260243
v 1.500000 1.234134 0.260243
v 1.500000 0.000000 0.000000
v 1.389479 0.000000 0.000000
v 1.389479 0.000000 0.000000
v 1.389479 1.063895 0.119907
v 1.389479 0.890762 0.031269
v 1.389479 0.761073 0.000000
v 1.389479 2.941270 0.390173
v 1.389479 2.897838 0.425368
v 1.389479 2.852361 0.443001
v 1.389479 2.979254 0.340177
v 1.389479 3.073285 0.152589
v 1.389479 2.670489 0.443001
v 1.389479 3.259154 -0.063495
v 1.389479 3.202689 -0.017740
v 1.389479 3.414086 -0.123571
v 1.389479 3.660802 -0.123571
vt 0.471071 0.000000
vt 0.471071 0.807124
vt 0.294537 0.807124
vt 0.294537 0.000000
vt 0.500000 0.000000
vt 0.500000 0.000000
vt 0.500000 0.093633
vt 0.500000 0.093633
vt 0.471071 0.907539
vt 0.294537 0.907539
vt 0.500000 0.221743
vt 0.500000 0.221743
vt 0.500000 0.250000
vt 0.500000 0.250000
vt 0.500000 0.176341
vt 0.500000 0.176341
vt 0.500000 0.121441
vt 0.500000 0.121441
vt 0.500000 0.500000
vt 0.500000 0.500000
vt 0.500000 0.921739
vt 0.500000 0.921739
vt 0.500000 1.000000
vt 0.500000 1.000000
vt 0.500000 0.772569
vt 0.500000 0.772569
vt 0.500000 0.843478
vt 0.500000 0.843478
vt 0.500000 0.689072
vt 0.500000 0.689072
vt 0.500000 0.746986
vt 0.500000 0.746986
vt 0.233135 0.794182
vt 0.233135 0.781478
vt 0.213951 0.781478
vt 0.213951 0.794182
vt 0.233135 0.891672
vt 0.213951 0.891672
vt 0.500000 0.610078
vt 0.500000 0.610078
vt 0.500000 0.630376
vt 0.500000 0.630376
vt 0.500000 0.588383
vt 0.500000 0.588383
vt 0.500000 0.647686
vt 0.500000 0.647686
vt 0.000000 0.000000
vt 0.000000 0.000000
vt 0.000000 0.000000
vt 0.000000 0.000000
vt 0.472433 0.000000
vt 0.295899 0.000000
vt 0.295899 0.807124
vt 0.472433 0.807124
vt 0.500000 0.000000
vt 0.500000 0.093633
vt 0.500000 0.093633
vt 0.500000 0.000000
vt 0.295899 0.907539
vt 0.472433 0.907539
vt 0.500000 0.221743
vt 0.500000 0.250000
vt 0.500000 0.250000
vt 0.500000 0.221743
vt 0.500000 0.176341
vt 0.500000 0.176341
vt 0.500000 0.121441
vt 0.500000 0.121441
vt 0.500000 0.500000
vt 0.500000 0.500000
vt 0.500000 0.921739
vt 0.500000 1.000000
vt 0.500000 1.000000
vt 0.500000 0.921739
vt 0.500000 0.772569
vt 0.500000 0.843478
vt 0.500000 0.843478
vt 0.500000 0.772569
vt 0.500000 0.689072
vt 0.500000 0.746986
vt 0.500000 0.746986
vt 0.500000 0.689072
vt 0.232418 0.884305
vt 0.214747 0.884305
vt 0.214747 0.895587
vt 0.232418 0.895587
vt 0.232418 0.797722
vt 0.214747 0.797722
vt 0.500000 0.610078
vt 0.500000 0.630376
vt 0.500000 0.630376
vt 0.500000 0.610078
vt 0.500000 0.588383
vt 0.500000 0.588383
vt 0.500000 0.647686
vt 0.500000 0.647686
vt 0.000000 0.000000
vt 0.000000 0.000000
vt 0.000000 0.000000
vt 0.000000 0.000000
vt 0.034890 0.000000
vt 0.000000 0.000000
vt 0.000000 0.500001
vt 0.034890 0.500001
vt 0.087893 1.000000
vt 0.205700 1.000000
vt 0.205700 0.500000
vt 0.087894 0.500000
vt 0.005859 1.000000
vt 0.005859 0.500000
vt 0.471071 0.934469
vt 0.294537 0.934469
vt 1.001229 0.196356
vt 0.915498 0.196356
vt 0.915498 0.597656
vt 1.001229 0.597656
vt 0.614484 0.000000
vt 0.570269 0.000000
vt 0.570269 0.500000
vt 0.614484 0.500000
vt 0.505804 0.500000
vt 0.505804 0.000000
vt 0.461589 0.500000
vt 0.461589 0.000000
vt 0.294537 0.965334
vt 0.471071 0.965333
vt 0.294537 1.000000
vt 0.471071 1.000000
vt 0.233980 0.711989
vt 0.213825 0.711989
vt 0.213825 0.993590
vt 0.233980 0.993590
vt 0.131342 0.500000
vt 0.196306 0.500000
vt 0.196306 0.000000
vt 0.131342 0.000000
vt 0.213952 0.723499
vt 0.213952 0.735106
vt 0.233135 0.735106
vt 0.233135 0.723499
vt 0.213952 0.740182
vt 0.233135 0.740182
vt 0.213952 0.769781
vt 0.213952 0.774166
vt 0.233135 0.774166
vt 0.233135 0.769781
vt 0.213952 0.778071
vt 0.233135 0.778071
vt 0.213951 0.904750
vt 0.213952 0.920160
vt 0.233135 0.920160
vt 0.233135 0.904750
vt 0.213952 0.933746
vt 0.233135 0.933746
vt 0.233135 0.943064
vt 0.213952 0.943064
vt 0.233135 0.904750
vt 0.233135 0.891672
vt 0.213951 0.891672
vt 0.213951 0.904750
vt 0.233135 0.996225
vt 0.213952 0.996225
vt 0.233135 0.755124
vt 0.213952 0.755124
vt 0.292135 0.000000
vt 0.000000 0.009078
vt 0.000000 0.500000
vt 0.292134 0.500000
vt 0.233135 0.706266
vt 0.213952 0.706266
vt 0.233135 0.700039
vt 0.213952 0.700036
vt 0.034890 1.000000
vt 0.000000 1.000000
vt 0.087894 0.000000
vt 0.205700 0.000000
vt 0.005860 0.000000
vt 0.295899 0.934468
vt 0.472433 0.934469
vt 1.001229 0.998957
vt 0.915498 0.998957
vt 0.614484 1.000000
vt 0.570269 1.000000
vt 0.505804 1.000000
vt 0.461589 1.000000
vt 0.295899 0.965333
vt 0.472433 0.965334
vt 0.295899 0.999999
vt 0.472433 1.000000
vt 0.233980 0.993590
vt 0.213825 0.993590
vt 0.131342 1.000000
vt 0.196305 1.000000
vt 0.214747 0.947079
vt 0.232418 0.947079
vt 0.232418 0.936770
vt 0.214747 0.936770
vt 0.232418 0.932262
vt 0.214747 0.932262
vt 0.214747 0.905975
vt 0.232418 0.905975
vt 0.232418 0.902080
vt 0.214747 0.902080
vt 0.232418 0.898613
vt 0.214747 0.898613
vt 0.214747 0.786108
vt 0.232418 0.786108
vt 0.232418 0.772422
vt 0.214747 0.772422
vt 0.232418 0.760356
vt 0.214747 0.760356
vt 0.232418 0.752081
vt 0.214747 0.752081
vt 0.232418 0.786108
vt 0.214747 0.786108
vt 0.214747 0.797722
vt 0.232418 0.797722
vt 0.232418 0.704868
vt 0.214747 0.704868
vt 0.214747 0.918992
vt 0.232418 0.918992
vt 0.292134 1.000000
vt 0.000000 0.990922
vt 0.214747 0.962384
vt 0.232418 0.962384
vt 0.214747 0.967917
vt 0.232418 0.967914
vn 0.0000 0.0000 -1.0000
vn 0.9993 -0.0078 0.0374
vn 1.0000 -0.0000 0.0000
vn 0.0000 -1.0000 0.0000
vn -0.9993 -0.0078 0.0374
vn -1.0000 0.0000 0.0000
vn 0.0000 -0.8488 -0.5288
vn 0.0000 -0.7181 -0.6960
vn 0.0000 -0.1839 -0.9829
vn 0.0000 -0.5016 -0.8651
vn 0.0000 0.9834 -0.1813
vn 0.0000 0.1174 -0.9931
vn 0.0000 0.3475 -0.9377
vn 0.0000 0.1180 -0.9930
vn 0.0000 0.5576 -0.8301
vn 0.0000 0.6517 -0.7585
vn 0.0000 0.6361 -0.7716
vn 0.0000 0.5491 -0.8358
vn 0.0000 0.9762 -0.2170
usemtl Grey_Packing
s off
f 126/1/1 141/2/1 4/3/1 125/4/1
f 18/5/2 154/6/2 64/7/2 32/8/2
f 141/2/1 138/9/1 12/10/1 4/3/1
f 130/11/3 150/12/3 148/13/3 127/14/3
f 131/15/3 155/16/3 150/12/3 130/11/3
f 32/8/3 64/7/3 56/17/3 33/18/3
f 127/14/3 148/13/3 35/19/3 20/20/3
f 33/18/3 56/17/3 155/16/3 131/15/3
f 66/21/3 167/22/3 34/23/3 124/24/3
f 22/25/3 164/26/3 166/27/3 144/28/3
f 23/29/3 162/30/3 165/31/3 24/32/3
f 36/33/1 47/34/1 160/35/1 163/36/1
f 146/37/1 36/33/1 163/36/1 50/38/1
f 28/39/3 48/40/3 61/41/3 26/42/3
f 27/43/3 62/44/3 48/40/3 28/39/3
f 26/42/3 61/41/3 43/45/3 25/46/3
f 25/46/3 43/45/3 162/30/3 23/29/3
f 20/20/3 35/19/3 62/44/3 27/43/3
f 24/32/3 165/31/3 164/26/3 22/25/3
f 1/47/4 57/48/4 58/49/4 135/50/4
f 144/28/3 166/27/3 167/22/3 66/21/3
f 169/51/1 125/52/1 4/53/1 183/54/1
f 72/55/5 86/56/5 118/57/5 196/58/5
f 183/54/1 4/53/1 12/59/1 180/60/1
f 172/61/6 170/62/6 190/63/6 192/64/6
f 173/65/6 172/61/6 192/64/6 197/66/6
f 86/56/6 87/67/6 110/68/6 118/57/6
f 170/62/6 74/69/6 89/70/6 190/63/6
f 87/67/6 173/65/6 197/66/6 110/68/6
f 119/71/6 168/72/6 88/73/6 209/74/6
f 76/75/6 186/76/6 208/77/6 206/78/6
f 77/79/6 78/80/6 207/81/6 204/82/6
f 90/83/1 205/84/1 202/85/1 101/86/1
f 188/87/1 104/88/1 205/84/1 90/83/1
f 82/89/6 80/90/6 115/91/6 102/92/6
f 81/93/6 82/89/6 102/92/6 116/94/6
f 80/90/6 79/95/6 97/96/6 115/91/6
f 79/95/6 77/79/6 204/82/6 97/96/6
f 74/69/6 81/93/6 116/94/6 89/70/6
f 78/80/6 76/75/6 206/78/6 207/81/6
f 71/97/4 177/98/4 112/99/4 111/100/4
f 186/76/6 119/71/6 209/74/6 208/77/6
s 1
f 145/101/1 19/102/1 3/103/1 65/104/1
f 140/105/7 143/106/8 7/107/8 8/108/7
f 139/109/7 140/105/7 8/108/7 9/110/7
f 138/9/9 137/111/10 11/112/10 12/10/9
f 129/113/11 29/114/11 13/115/11 14/116/11
f 133/117/12 132/118/13 16/119/13 17/120/14
f 15/121/15 16/119/13 132/118/13 31/122/15
f 128/123/16 15/121/15 31/122/15 30/124/16
f 10/125/8 11/112/10 137/111/10 136/126/8
f 9/127/7 10/125/8 136/126/8 139/128/7
f 6/129/10 7/130/8 143/131/8 142/132/10
f 5/133/9 6/134/10 142/135/10 21/136/9
f 37/137/9 59/138/10 39/139/10 38/140/9
f 59/138/10 42/141/8 40/142/8 39/139/10
f 161/143/7 158/144/8 45/145/8 44/146/7
f 158/144/8 159/147/10 46/148/10 45/145/8
f 149/149/17 63/150/18 53/151/18 151/152/17
f 63/150/18 156/153/13 54/154/13 53/151/18
f 55/155/14 54/154/13 156/153/13 157/156/14
f 52/157/19 49/158/19 147/159/19 51/160/19
f 152/161/1 55/155/14 157/156/14 153/162/1
f 47/34/9 46/148/10 159/147/10 160/35/9
f 44/146/7 41/163/7 60/164/7 161/143/7
f 41/163/7 40/142/8 42/141/8 60/164/7
f 134/165/1 133/166/12 17/167/14 2/168/1
f 38/140/9 67/169/1 68/170/1 37/137/9
f 21/136/9 145/101/1 65/104/1 5/133/9
f 67/169/1 69/171/1 70/172/1 68/170/1
f 187/173/1 65/104/1 3/103/1 73/174/1
f 182/175/7 8/108/7 7/107/8 185/176/8
f 181/177/7 9/110/7 8/108/7 182/175/7
f 180/60/9 12/59/9 11/178/10 179/179/10
f 171/180/11 14/116/11 13/115/11 83/181/11
f 175/182/12 17/120/14 16/119/13 174/183/13
f 15/121/15 85/184/15 174/183/13 16/119/13
f 128/123/16 84/185/16 85/184/15 15/121/15
f 10/186/8 178/187/8 179/179/10 11/178/10
f 9/188/7 181/189/7 178/187/8 10/186/8
f 6/129/10 184/190/10 185/191/8 7/130/8
f 5/133/9 75/192/9 184/193/10 6/134/10
f 91/194/9 92/195/9 93/196/10 113/197/10
f 113/197/10 93/196/10 94/198/8 96/199/8
f 203/200/7 98/201/7 99/202/8 200/203/8
f 200/203/8 99/202/8 100/204/10 201/205/10
f 191/206/17 193/207/17 107/208/18 117/209/18
f 117/209/18 107/208/18 108/210/13 198/211/13
f 109/212/14 199/213/14 198/211/13 108/210/13
f 106/214/19 105/215/19 189/216/19 103/217/19
f 194/218/1 195/219/1 199/213/14 109/212/14
f 101/86/9 202/85/9 201/205/10 100/204/10
f 98/201/7 203/200/7 114/220/7 95/221/7
f 95/221/7 114/220/7 96/199/8 94/198/8
f 176/222/1 2/168/1 17/167/14 175/223/12
f 92/195/9 91/194/9 121/224/1 120/225/1
f 75/192/9 5/133/9 65/104/1 187/173/1
f 120/225/1 121/224/1 123/226/1 122/227/1
