# Blender v3.1.2 OBJ File: 'Corridors.blend'
# www.blender.org
mtllib Wall_Full_01.mtl
o Wall_Full_01
v 0.000000 0.000000 0.105320
v 0.000000 2.500031 0.022939
v 0.000000 1.780326 0.400654
v 0.000000 2.276057 0.022939
v 0.000000 2.172769 0.062989
v 0.000000 2.135126 0.093493
v 0.000000 2.048856 0.207046
v 0.000000 1.986169 0.332104
v 0.000000 1.960847 0.365435
v 0.000000 1.931892 0.388898
v 0.000000 1.901574 0.400654
v 0.000000 0.805747 0.400654
v 0.000000 0.776723 0.243214
v 0.000000 0.709263 0.185258
v 0.000000 0.593841 0.126165
v 0.000000 0.507382 0.105320
v -0.934203 0.000000 0.105320
v -0.926319 2.500031 0.022939
v -0.926319 1.780326 0.400654
v -0.926319 2.276057 0.022939
v -0.926319 2.172769 0.062989
v -0.926319 2.048856 0.207046
v -0.926319 2.135126 0.093493
v -0.926319 1.986169 0.332104
v -0.926319 1.960847 0.365435
v -0.926319 1.901574 0.400654
v -0.926319 1.931892 0.388898
v -0.926319 0.805747 0.400654
v -0.926319 0.776723 0.243214
v -0.926319 0.709263 0.185258
v -0.926319 0.507382 0.105320
v -0.926319 0.593841 0.126165
v -0.926319 2.500000 -0.082365
v -0.926319 1.780326 0.295350
v -1.000000 1.780326 0.295350
v -0.926319 2.276057 -0.082365
v -1.000000 2.276057 -0.082365
v -1.000000 2.172769 -0.042314
v -1.000000 2.135126 -0.011811
v -1.000000 2.048856 0.101742
v -0.926319 2.135126 -0.011811
v -0.926319 1.986169 0.226801
v -1.000000 1.986169 0.226801
v -1.000000 1.960847 0.260132
v -1.000000 1.931892 0.283595
v -1.000000 1.901574 0.295350
v -0.926319 1.931892 0.283595
v -1.000000 0.849841 0.295350
v -0.926319 0.849841 0.295350
v -0.926319 0.822756 0.173511
v -1.000000 0.822756 0.173511
v -1.000000 0.709263 0.079954
v -1.000000 0.593841 0.020862
v -1.000000 0.507382 0.000016
v -0.926319 0.593841 0.020862
v -1.000000 0.000000 0.000016
v -0.926319 0.000000 0.000016
v -0.926319 2.172769 -0.042314
v -0.926319 2.048856 0.101742
v -0.926319 1.960847 0.260132
v -0.926319 1.901574 0.295350
v -0.926319 0.709263 0.079954
v -0.926319 0.507382 0.000016
v -0.871297 0.355974 0.105320
v -0.062905 0.355974 0.105320
v -0.871297 0.473217 0.105320
v -0.062905 0.473217 0.105320
v -0.847001 0.367733 0.154216
v -0.087202 0.367733 0.154216
v -0.847001 0.461458 0.154216
v -0.087202 0.461458 0.154216
v 0.000000 2.440535 0.022939
v -0.926319 2.440535 0.022939
v -1.000000 2.440535 -0.082365
v -0.926319 2.440535 -0.082365
v -1.000000 2.499969 -0.082365
v -0.926319 2.500000 -0.082365
v 0.934203 0.000000 0.105320
v 0.926319 2.500031 0.022939
v 0.926319 1.780326 0.400654
v 0.926319 2.276057 0.022939
v 0.926319 2.172769 0.062989
v 0.926319 2.048856 0.207046
v 0.926319 2.135126 0.093493
v 0.926319 1.986169 0.332104
v 0.926319 1.960847 0.365435
v 0.926319 1.901574 0.400654
v 0.926319 1.931892 0.388898
v 0.926319 0.805747 0.400654
v 0.926319 0.776723 0.243214
v 0.926319 0.709263 0.185258
v 0.926319 0.507382 0.105320
v 0.926319 0.593841 0.126165
v 0.926319 2.500000 -0.082365
v 0.926319 1.780326 0.295350
v 1.000000 1.780326 0.295350
v 0.926319 2.276057 -0.082365
v 1.000000 2.276057 -0.082365
v 1.000000 2.172769 -0.042314
v 1.000000 2.135126 -0.011811
v 1.000000 2.048856 0.101742
v 0.926319 2.135126 -0.011811
v 0.926319 1.986169 0.226801
v 1.000000 1.986169 0.226801
v 1.000000 1.960847 0.260132
v 1.000000 1.931892 0.283595
v 1.000000 1.901574 0.295350
v 0.926319 1.931892 0.283595
v 1.000000 0.849841 0.295350
v 0.926319 0.849841 0.295350
v 0.926319 0.822756 0.173511
v 1.000000 0.822756 0.173511
v 1.000000 0.709263 0.079954
v 1.000000 0.593841 0.020862
v 1.000000 0.507382 0.000016
v 0.926319 0.593841 0.020862
v 1.000000 0.000000 0.000016
v 0.926319 0.000000 0.000016
v 0.926319 2.172769 -0.042314
v 0.926319 2.048856 0.101742
v 0.926319 1.960847 0.260132
v 0.926319 1.901574 0.295350
v 0.926319 0.709263 0.079954
v 0.926319 0.507382 0.000016
v 0.871297 0.355974 0.105320
v 0.062905 0.355974 0.105320
v 0.871297 0.473217 0.105320
v 0.062905 0.473217 0.105320
v 0.847001 0.367733 0.154216
v 0.087202 0.367733 0.154216
v 0.847001 0.461458 0.154216
v 0.087202 0.461458 0.154216
v 0.926319 2.440535 0.022939
v 1.000000 2.440535 -0.082365
v 0.926319 2.440535 -0.082365
v 1.000000 2.499969 -0.082365
v 0.926319 2.500000 -0.082365
v -0.926319 2.500031 0.022939
v 0.000000 0.805747 0.400654
v -0.926319 0.805747 0.400654
v -0.926319 0.805747 0.400654
v 0.000000 0.776723 0.243214
v -0.926319 0.776723 0.243214
v -0.926319 0.776723 0.243214
v -0.926319 0.709263 0.185258
v -0.926319 0.593841 0.126165
v -0.926319 0.507382 0.105320
v -0.934203 0.000000 0.105320
v -0.926319 1.960847 0.365435
v -0.926319 1.931892 0.388898
v -0.926319 1.901574 0.400654
v -0.926319 1.986169 0.332104
v -0.926319 2.048856 0.207046
v -0.926319 1.780326 0.400654
v -0.926319 2.172769 0.062989
v -0.926319 2.135126 0.093493
v -0.926319 2.276057 0.022939
v -0.926319 2.440535 0.022939
v -1.000000 0.849841 0.295350
v -0.926319 0.849841 0.295350
v -0.926319 0.849841 0.295350
v -0.926319 0.822756 0.173511
v -0.926319 0.822756 0.173511
v -1.000000 0.822756 0.173511
v -0.926319 0.709263 0.079954
v -0.926319 0.593841 0.020862
v -0.926319 0.507382 0.000016
v -0.926319 0.000000 0.000016
v -0.926319 1.960847 0.260132
v -0.926319 1.931892 0.283595
v -0.926319 1.901574 0.295350
v -0.926319 1.986169 0.226801
v -0.926319 2.048856 0.101742
v -0.926319 1.780326 0.295350
v -0.926319 2.172769 -0.042314
v -0.926319 2.135126 -0.011811
v -0.926319 2.276057 -0.082365
v -0.926319 2.440535 -0.082365
v -0.871297 0.355974 0.105320
v -0.871297 0.355974 0.105320
v -0.062905 0.355974 0.105320
v -0.062905 0.355974 0.105320
v -0.871297 0.473217 0.105320
v -0.871297 0.473217 0.105320
v -0.062905 0.473217 0.105320
v -0.062905 0.473217 0.105320
v -0.847001 0.367733 0.154216
v -0.847001 0.367733 0.154216
v -0.087202 0.367733 0.154216
v -0.087202 0.367733 0.154216
v -0.847001 0.461458 0.154216
v -0.847001 0.461458 0.154216
v -0.087202 0.461458 0.154216
v -0.087202 0.461458 0.154216
v 0.926319 2.500031 0.022939
v 0.926319 0.805747 0.400654
v 0.926319 0.805747 0.400654
v 0.926319 0.776723 0.243214
v 0.926319 0.776723 0.243214
v 0.926319 0.709263 0.185258
v 0.926319 0.593841 0.126165
v 0.926319 0.507382 0.105320
v 0.934203 0.000000 0.105320
v 0.926319 1.960847 0.365435
v 0.926319 1.931892 0.388898
v 0.926319 1.901574 0.400654
v 0.926319 1.986169 0.332104
v 0.926319 2.048856 0.207046
v 0.926319 1.780326 0.400654
v 0.926319 2.172769 0.062989
v 0.926319 2.135126 0.093493
v 0.926319 2.276057 0.022939
v 0.926319 2.440535 0.022939
v 1.000000 0.849841 0.295350
v 0.926319 0.849841 0.295350
v 0.926319 0.849841 0.295350
v 0.926319 0.822756 0.173511
v 0.926319 0.822756 0.173511
v 1.000000 0.822756 0.173511
v 0.926319 0.709263 0.079954
v 0.926319 0.593841 0.020862
v 0.926319 0.507382 0.000016
v 0.926319 0.000000 0.000016
v 0.926319 1.960847 0.260132
v 0.926319 1.931892 0.283595
v 0.926319 1.901574 0.295350
v 0.926319 1.986169 0.226801
v 0.926319 2.048856 0.101742
v 0.926319 1.780326 0.295350
v 0.926319 2.172769 -0.042314
v 0.926319 2.135126 -0.011811
v 0.926319 2.276057 -0.082365
v 0.926319 2.440535 -0.082365
v 0.871297 0.355974 0.105320
v 0.871297 0.355974 0.105320
v 0.062905 0.355974 0.105320
v 0.062905 0.355974 0.105320
v 0.871297 0.473217 0.105320
v 0.871297 0.473217 0.105320
v 0.062905 0.473217 0.105320
v 0.062905 0.473217 0.105320
v 0.847001 0.367733 0.154216
v 0.847001 0.367733 0.154216
v 0.087202 0.367733 0.154216
v 0.087202 0.367733 0.154216
v 0.847001 0.461458 0.154216
v 0.847001 0.461458 0.154216
v 0.087202 0.461458 0.154216
v 0.087202 0.461458 0.154216
vt 0.658530 -0.350885
vt 0.009957 1.398356
vt 0.009957 -0.350885
vt 0.658530 1.398356
vt 0.343014 0.962033
vt 0.372277 0.940091
vt 0.372890 0.787844
vt 0.330477 0.781345
vt 0.489454 -0.023580
vt 0.464021 -0.023580
vt 0.464021 1.048391
vt 0.489454 1.048391
vt 0.324807 0.664964
vt 0.351392 0.668316
vt 0.330818 0.626479
vt 0.294634 0.619805
vt 0.327969 0.697512
vt 0.361842 0.713192
vt 0.224980 0.019147
vt 0.412672 0.085482
vt 0.457395 0.085482
vt 0.475409 0.019147
vt 0.369736 0.756241
vt 0.331264 0.746693
vt 0.341926 0.299245
vt 0.309829 0.302892
vt 0.345029 0.042787
vt 0.378174 0.043319
vt 0.378575 0.024860
vt 0.345912 0.023994
vt 0.343745 0.133107
vt 0.372590 0.120207
vt 0.377048 0.090979
vt 0.345507 0.095823
vt 0.331778 0.195161
vt 0.356182 0.172535
vt 0.369423 0.132971
vt 0.341318 0.149042
vt 0.193052 0.864776
vt 0.193052 0.946231
vt 0.153930 0.946231
vt 0.153930 0.864776
vt 0.193052 0.224428
vt 0.153930 0.224428
vt 0.307121 0.260822
vt 0.336527 0.245662
vt 0.337976 0.231661
vt 0.308926 0.250672
vt 0.306795 0.269785
vt 0.336823 0.257690
vt 0.341571 0.216754
vt 0.312497 0.238842
vt 0.232848 0.000000
vt 0.000000 0.100295
vt 0.000000 0.899705
vt 0.232848 1.000000
vt 0.224980 1.004291
vt 0.412672 0.937955
vt 0.457395 0.937955
vt 0.475409 0.995978
vt 0.879656 0.214893
vt 0.807290 0.214893
vt 0.807292 0.720304
vt 0.879658 0.720303
vt 0.031106 0.000000
vt 0.000000 0.030056
vt 0.000001 0.969945
vt 0.031106 1.000000
vt 0.232848 0.000000
vt 0.000000 0.100295
vt 0.000000 0.899705
vt 0.232848 1.000000
vt 0.658530 -0.350885
vt 0.009957 1.398356
vt 0.343014 0.962033
vt 0.330477 0.781345
vt 0.372890 0.787844
vt 0.372277 0.940091
vt 0.489454 -0.023580
vt 0.464021 -0.023580
vt 0.324807 0.664964
vt 0.294634 0.619805
vt 0.330818 0.626479
vt 0.351392 0.668316
vt 0.327969 0.697512
vt 0.361842 0.713192
vt 0.457395 0.085482
vt 0.412672 0.085482
vt 0.331264 0.746693
vt 0.369736 0.756241
vt 0.309829 0.302892
vt 0.341926 0.299245
vt 0.345029 0.042787
vt 0.345912 0.023994
vt 0.378575 0.024860
vt 0.378174 0.043319
vt 0.343745 0.133107
vt 0.345507 0.095823
vt 0.377048 0.090979
vt 0.372590 0.120207
vt 0.331778 0.195161
vt 0.341318 0.149042
vt 0.369423 0.132971
vt 0.356182 0.172535
vt 0.193052 0.864776
vt 0.153930 0.864776
vt 0.153930 0.946231
vt 0.193052 0.946231
vt 0.193052 0.224428
vt 0.153930 0.224428
vt 0.307121 0.260822
vt 0.308926 0.250672
vt 0.337976 0.231661
vt 0.336527 0.245662
vt 0.306795 0.269785
vt 0.336823 0.257690
vt 0.312497 0.238842
vt 0.341571 0.216754
vt 0.232848 0.000000
vt 0.232848 1.000000
vt 0.000000 0.899705
vt 0.000000 0.100295
vt 0.224980 1.004291
vt 0.412672 0.937955
vt 0.475409 0.995978
vt 0.457395 0.937955
vt 0.879656 0.214893
vt 0.879658 0.720303
vt 0.807292 0.720304
vt 0.807290 0.214893
vt 0.031106 0.000000
vt 0.031106 1.000000
vt 0.000001 0.969945
vt 0.000000 0.030056
vt 0.232848 0.000000
vt 0.232848 1.000000
vt 0.000000 0.899705
vt 0.000000 0.100295
vt 0.232419 0.690647
vt 0.216197 0.690647
vt 0.216197 0.999432
vt 0.232419 0.999432
vt 0.345117 -0.023580
vt 0.287733 -0.023580
vt 0.287733 1.048391
vt 0.345117 1.048391
vt 0.400455 -0.023580
vt 0.400455 1.048391
vt 0.430388 -0.023580
vt 0.430388 1.048391
vt 0.997722 0.200299
vt 0.921141 0.200299
vt 0.921141 0.997940
vt 0.997722 0.997940
vt 0.478080 1.074756
vt 0.520358 1.074756
vt 0.520358 -0.016449
vt 0.478080 -0.016449
vt 0.581163 -0.016449
vt 0.581163 1.074756
vt 0.621051 -0.016449
vt 0.621051 1.074756
vt 0.416395 1.048391
vt 0.416395 -0.023580
vt 0.253842 1.048391
vt 0.253842 -0.023580
vt 0.222821 1.048391
vt 0.222821 -0.023580
vt 0.153930 1.272616
vt 0.153930 1.212724
vt 0.193052 1.212724
vt 0.193052 1.272616
vt 0.153930 1.186452
vt 0.193052 1.186452
vt 0.153930 1.021897
vt 0.153930 0.994221
vt 0.193052 0.994221
vt 0.193052 1.021897
vt 0.153930 0.968575
vt 0.193052 0.968575
vt 0.153930 0.142466
vt 0.153930 0.051690
vt 0.193052 0.051690
vt 0.193052 0.142466
vt 0.153930 -0.034622
vt 0.193052 -0.034622
vt 0.193052 -0.099479
vt 0.153930 -0.099479
vt 0.193052 0.142466
vt 0.193052 0.224428
vt 0.153930 0.224428
vt 0.153930 0.142466
vt 0.193052 -0.415895
vt 0.153930 -0.415895
vt 0.193052 1.107410
vt 0.153930 1.107410
vt 0.479112 0.000000
vt 0.448007 0.030056
vt 0.448007 0.969945
vt 0.479112 1.000000
vt 0.193052 1.368149
vt 0.153930 1.368149
vt 0.795503 0.155901
vt 0.685339 0.155901
vt 0.685339 0.728358
vt 0.795503 0.728358
vt 0.193052 1.404397
vt 0.153930 1.404397
vt 0.232419 0.690647
vt 0.216197 0.690647
vt 0.345117 -0.023580
vt 0.287733 -0.023580
vt 0.400455 -0.023580
vt 0.430388 -0.023580
vt 0.997722 0.200299
vt 0.921141 0.200299
vt 0.478080 1.074756
vt 0.520358 1.074756
vt 0.581163 1.074756
vt 0.621051 1.074756
vt 0.416395 -0.023580
vt 0.253842 -0.023580
vt 0.222821 -0.023580
vt 0.153930 1.272616
vt 0.193052 1.272616
vt 0.193052 1.212724
vt 0.153930 1.212724
vt 0.193052 1.186452
vt 0.153930 1.186452
vt 0.153930 1.021897
vt 0.193052 1.021897
vt 0.193052 0.994221
vt 0.153930 0.994221
vt 0.193052 0.968575
vt 0.153930 0.968575
vt 0.153930 0.142466
vt 0.193052 0.142466
vt 0.193052 0.051690
vt 0.153930 0.051690
vt 0.193052 -0.034622
vt 0.153930 -0.034622
vt 0.193052 -0.099479
vt 0.153930 -0.099479
vt 0.193052 0.142466
vt 0.153930 0.142466
vt 0.153930 0.224428
vt 0.193052 0.224428
vt 0.193052 -0.415895
vt 0.153930 -0.415895
vt 0.153930 1.107410
vt 0.193052 1.107410
vt 0.479112 0.000000
vt 0.479112 1.000000
vt 0.448007 0.969945
vt 0.448007 0.030056
vt 0.153930 1.368149
vt 0.193052 1.368149
vt 0.795503 0.155901
vt 0.685339 0.155901
vt 0.153930 1.404397
vt 0.193052 1.404397
vn 0.0000 0.0000 -1.0000
vn 0.9993 -0.0078 0.0374
vn 1.0000 -0.0000 0.0000
vn -0.8955 0.0000 -0.4450
vn 0.0000 0.9723 -0.2338
vn 0.8955 0.0000 -0.4450
vn -0.9993 -0.0078 0.0374
vn -1.0000 -0.0000 0.0000
vn 0.0000 -0.8488 -0.5288
vn 0.0000 -0.7181 -0.6960
vn 0.0000 -0.1839 -0.9829
vn 0.0000 -0.5016 -0.8651
vn 0.0000 0.9834 -0.1813
vn 0.0000 0.1174 -0.9931
vn 0.0000 0.3475 -0.9377
vn -0.0000 0.1180 -0.9930
vn 0.0000 0.5576 -0.8301
vn 0.0000 0.6517 -0.7585
vn 0.0000 0.6361 -0.7716
vn 0.0000 0.5491 -0.8358
vn 0.0000 0.9762 -0.2170
vn 0.0000 -0.9723 -0.2338
usemtl Grey_Packing
s off
f 140/1/1 154/2/1 3/3/1 139/4/1
f 17/5/2 57/6/2 63/7/2 31/8/2
f 154/9/1 151/10/1 11/11/1 3/12/1
f 144/13/3 163/14/3 161/15/3 141/16/3
f 145/17/3 165/18/3 163/14/3 144/13/3
f 1/19/1 181/20/1 185/21/1 16/22/1
f 31/8/3 63/7/3 55/23/3 32/24/3
f 141/16/3 161/15/3 34/25/3 19/26/3
f 32/24/3 55/23/3 165/18/3 145/17/3
f 73/27/3 178/28/3 33/29/3 138/30/3
f 21/31/3 175/32/3 177/33/3 157/34/3
f 22/35/3 173/36/3 176/37/3 23/38/3
f 35/39/1 46/40/1 171/41/1 174/42/1
f 159/43/1 35/39/1 174/42/1 49/44/1
f 27/45/3 47/46/3 60/47/3 25/48/3
f 26/49/3 61/50/3 47/46/3 27/45/3
f 25/48/3 60/47/3 42/51/3 24/52/3
f 24/52/3 42/51/3 173/36/3 22/35/3
f 19/26/3 34/25/3 61/50/3 26/49/3
f 23/38/3 176/37/3 175/32/3 21/31/3
f 182/53/4 190/54/4 194/55/4 186/56/4
f 148/57/1 179/58/1 181/20/1 1/19/1
f 16/22/1 185/21/1 183/59/1 147/60/1
f 147/60/1 183/59/1 179/58/1 148/57/1
f 187/61/1 191/62/1 193/63/1 189/64/1
f 180/65/5 188/66/5 69/67/5 65/68/5
f 184/69/6 192/70/6 68/71/6 64/72/6
f 157/34/3 177/33/3 178/28/3 73/27/3
f 196/73/1 139/4/1 3/3/1 209/74/1
f 78/75/7 92/76/7 124/77/7 118/78/7
f 209/79/1 3/12/1 11/11/1 206/80/1
f 199/81/8 197/82/8 216/83/8 218/84/8
f 200/85/8 199/81/8 218/84/8 220/86/8
f 1/19/1 16/22/1 240/87/1 236/88/1
f 92/76/8 93/89/8 116/90/8 124/77/8
f 197/82/8 80/91/8 95/92/8 216/83/8
f 93/89/8 200/85/8 220/86/8 116/90/8
f 133/93/8 195/94/8 94/95/8 233/96/8
f 82/97/8 212/98/8 232/99/8 230/100/8
f 83/101/8 84/102/8 231/103/8 228/104/8
f 96/105/1 229/106/1 226/107/1 107/108/1
f 214/109/1 110/110/1 229/106/1 96/105/1
f 88/111/8 86/112/8 121/113/8 108/114/8
f 87/115/8 88/111/8 108/114/8 122/116/8
f 86/112/8 85/117/8 103/118/8 121/113/8
f 85/117/8 83/101/8 228/104/8 103/118/8
f 80/91/8 87/115/8 122/116/8 95/92/8
f 84/102/8 82/97/8 230/100/8 231/103/8
f 237/119/6 241/120/6 249/121/6 245/122/6
f 203/123/1 1/19/1 236/88/1 234/124/1
f 16/22/1 202/125/1 238/126/1 240/87/1
f 202/125/1 203/123/1 234/124/1 238/126/1
f 242/127/1 244/128/1 248/129/1 246/130/1
f 235/131/5 126/132/5 130/133/5 243/134/5
f 239/135/4 125/136/4 129/137/4 247/138/4
f 212/98/8 133/93/8 233/96/8 232/99/8
s 1
f 158/139/1 18/140/1 2/141/1 72/142/1
f 153/143/9 156/144/10 6/145/10 7/146/9
f 152/147/9 153/143/9 7/146/9 8/148/9
f 151/10/11 150/149/12 10/150/12 11/11/11
f 143/151/13 28/152/13 12/153/13 13/154/13
f 147/155/14 146/156/15 15/157/15 16/158/16
f 14/159/17 15/157/15 146/156/15 30/160/17
f 142/161/18 14/159/17 30/160/17 29/162/18
f 9/163/10 10/150/12 150/149/12 149/164/10
f 8/148/9 9/163/10 149/164/10 152/147/9
f 5/165/12 6/145/10 156/144/10 155/166/12
f 4/167/11 5/165/12 155/166/12 20/168/11
f 36/169/11 58/170/12 38/171/12 37/172/11
f 58/170/12 41/173/10 39/174/10 38/171/12
f 172/175/9 169/176/10 44/177/10 43/178/9
f 169/176/10 170/179/12 45/180/12 44/177/10
f 162/181/19 62/182/20 52/183/20 164/184/19
f 62/182/20 166/185/15 53/186/15 52/183/20
f 54/187/16 53/186/15 166/185/15 167/188/16
f 51/189/21 48/190/21 160/191/21 50/192/21
f 56/193/1 54/187/16 167/188/16 168/194/1
f 46/40/11 45/180/12 170/179/12 171/41/11
f 43/178/9 40/195/9 59/196/9 172/175/9
f 40/195/9 39/174/10 41/173/10 59/196/9
f 67/197/22 71/198/22 70/199/22 66/200/22
f 37/172/11 74/201/1 75/202/1 36/169/11
f 20/203/11 158/204/1 72/205/1 4/206/11
f 74/201/1 76/207/1 77/208/1 75/202/1
f 213/209/1 72/142/1 2/141/1 79/210/1
f 208/211/9 7/146/9 6/145/10 211/212/10
f 207/213/9 8/148/9 7/146/9 208/211/9
f 206/80/11 11/11/11 10/150/12 205/214/12
f 198/215/13 13/154/13 12/153/13 89/216/13
f 202/217/14 16/158/16 15/157/15 201/218/15
f 14/159/17 91/219/17 201/218/15 15/157/15
f 142/161/18 90/220/18 91/219/17 14/159/17
f 9/163/10 204/221/10 205/214/12 10/150/12
f 8/148/9 207/213/9 204/221/10 9/163/10
f 5/165/12 210/222/12 211/212/10 6/145/10
f 4/167/11 81/223/11 210/222/12 5/165/12
f 97/224/11 98/225/11 99/226/12 119/227/12
f 119/227/12 99/226/12 100/228/10 102/229/10
f 227/230/9 104/231/9 105/232/10 224/233/10
f 224/233/10 105/232/10 106/234/12 225/235/12
f 217/236/19 219/237/19 113/238/20 123/239/20
f 123/239/20 113/238/20 114/240/15 221/241/15
f 115/242/16 222/243/16 221/241/15 114/240/15
f 112/244/21 111/245/21 215/246/21 109/247/21
f 117/248/1 223/249/1 222/243/16 115/242/16
f 107/108/11 226/107/11 225/235/12 106/234/12
f 104/231/9 227/230/9 120/250/9 101/251/9
f 101/251/9 120/250/9 102/229/10 100/228/10
f 128/252/22 127/253/22 131/254/22 132/255/22
f 98/225/11 97/224/11 135/256/1 134/257/1
f 81/258/11 4/206/11 72/205/1 213/259/1
f 134/257/1 135/256/1 137/260/1 136/261/1
